<svg width="905" height="101" viewBox="0 0 905 101" fill="none" xmlns="http://www.w3.org/2000/svg">
<path d="M60.18 49.6C65.8733 50.8133 70.4467 53.66 73.9 58.14C77.3533 62.5267 79.08 67.5667 79.08 73.26C79.08 81.4733 76.1867 88.0067 70.4 92.86C64.7067 97.62 56.7267 100 46.46 100H0.68V1.72H44.92C54.9067 1.72 62.7 4.00666 68.3 8.57999C73.9933 13.1533 76.84 19.36 76.84 27.2C76.84 32.9867 75.3 37.7933 72.22 41.62C69.2333 45.4467 65.22 48.1067 60.18 49.6ZM24.62 41.48H40.3C44.22 41.48 47.2067 40.64 49.26 38.96C51.4067 37.1867 52.48 34.62 52.48 31.26C52.48 27.9 51.4067 25.3333 49.26 23.56C47.2067 21.7867 44.22 20.9 40.3 20.9H24.62V41.48ZM42.26 80.68C46.2733 80.68 49.3533 79.7933 51.5 78.02C53.74 76.1533 54.86 73.4933 54.86 70.04C54.86 66.5867 53.6933 63.88 51.36 61.92C49.12 59.96 45.9933 58.98 41.98 58.98H24.62V80.68H42.26ZM116.905 1.72V100H92.9652V1.72H116.905ZM180.734 100.98C171.494 100.98 163.001 98.8333 155.254 94.54C147.601 90.2467 141.488 84.2733 136.914 76.62C132.434 68.8733 130.194 60.1933 130.194 50.58C130.194 40.9667 132.434 32.3333 136.914 24.68C141.488 17.0267 147.601 11.0533 155.254 6.76C163.001 2.46667 171.494 0.319998 180.734 0.319998C189.974 0.319998 198.421 2.46667 206.074 6.76C213.821 11.0533 219.888 17.0267 224.274 24.68C228.754 32.3333 230.994 40.9667 230.994 50.58C230.994 60.1933 228.754 68.8733 224.274 76.62C219.794 84.2733 213.728 90.2467 206.074 94.54C198.421 98.8333 189.974 100.98 180.734 100.98ZM180.734 79.14C188.574 79.14 194.828 76.5267 199.494 71.3C204.254 66.0733 206.634 59.1667 206.634 50.58C206.634 41.9 204.254 34.9933 199.494 29.86C194.828 24.6333 188.574 22.02 180.734 22.02C172.801 22.02 166.454 24.5867 161.694 29.72C157.028 34.8533 154.694 41.8067 154.694 50.58C154.694 59.26 157.028 66.2133 161.694 71.44C166.454 76.5733 172.801 79.14 180.734 79.14Z" fill="#F78561"/>
<path d="M281.133 1.72C291.493 1.72 300.546 3.77333 308.293 7.87999C316.039 11.9867 322.013 17.7733 326.213 25.24C330.506 32.6133 332.653 41.1533 332.653 50.86C332.653 60.4733 330.506 69.0133 326.213 76.48C322.013 83.9467 315.993 89.7333 308.153 93.84C300.406 97.9467 291.399 100 281.133 100H244.313V1.72H281.133ZM279.593 79.28C288.646 79.28 295.693 76.8067 300.733 71.86C305.773 66.9133 308.293 59.9133 308.293 50.86C308.293 41.8067 305.773 34.76 300.733 29.72C295.693 24.68 288.646 22.16 279.593 22.16H268.253V79.28H279.593ZM369.972 20.9V40.78H402.032V59.26H369.972V80.82H406.232V100H346.032V1.72H406.232V20.9H369.972ZM445.714 81.52H477.074V100H421.774V1.72H445.714V81.52ZM580.753 1.72L545.893 100H515.933L481.073 1.72H506.553L530.913 75.92L555.413 1.72H580.753ZM614.698 20.9V40.78H646.758V59.26H614.698V80.82H650.958V100H590.758V1.72H650.958V20.9H614.698ZM716.62 100L696.18 62.9H690.44V100H666.5V1.72H706.68C714.427 1.72 721.007 3.07333 726.42 5.77999C731.927 8.48666 736.034 12.22 738.74 16.98C741.447 21.6467 742.8 26.8733 742.8 32.66C742.8 39.1933 740.934 45.0267 737.2 50.16C733.56 55.2933 728.147 58.9333 720.96 61.08L743.64 100H716.62ZM690.44 45.96H705.28C709.667 45.96 712.934 44.8867 715.08 42.74C717.32 40.5933 718.44 37.56 718.44 33.64C718.44 29.9067 717.32 26.9667 715.08 24.82C712.934 22.6733 709.667 21.6 705.28 21.6H690.44V45.96ZM793.388 100.98C786.202 100.98 779.762 99.8133 774.068 97.48C768.375 95.1467 763.802 91.6933 760.348 87.12C756.988 82.5467 755.215 77.04 755.028 70.6H780.508C780.882 74.24 782.142 77.04 784.288 79C786.435 80.8667 789.235 81.8 792.688 81.8C796.235 81.8 799.035 81.0067 801.088 79.42C803.142 77.74 804.168 75.4533 804.168 72.56C804.168 70.1333 803.328 68.1267 801.648 66.54C800.062 64.9533 798.055 63.6467 795.628 62.62C793.295 61.5933 789.935 60.4267 785.548 59.12C779.202 57.16 774.022 55.2 770.008 53.24C765.995 51.28 762.542 48.3867 759.648 44.56C756.755 40.7333 755.308 35.74 755.308 29.58C755.308 20.4333 758.622 13.2933 765.248 8.16C771.875 2.93333 780.508 0.319998 791.148 0.319998C801.975 0.319998 810.702 2.93333 817.328 8.16C823.955 13.2933 827.502 20.48 827.968 29.72H802.068C801.882 26.5467 800.715 24.0733 798.568 22.3C796.422 20.4333 793.668 19.5 790.308 19.5C787.415 19.5 785.082 20.2933 783.308 21.88C781.535 23.3733 780.648 25.5667 780.648 28.46C780.648 31.6333 782.142 34.1067 785.128 35.88C788.115 37.6533 792.782 39.5667 799.128 41.62C805.475 43.7667 810.608 45.82 814.528 47.78C818.542 49.74 821.995 52.5867 824.888 56.32C827.782 60.0533 829.228 64.86 829.228 70.74C829.228 76.34 827.782 81.4267 824.888 86C822.088 90.5733 817.982 94.2133 812.568 96.92C807.155 99.6267 800.762 100.98 793.388 100.98ZM867.901 20.9V40.78H899.961V59.26H867.901V80.82H904.161V100H843.961V1.72H904.161V20.9H867.901Z" fill="#EA4780"/>
</svg>
